<?xml version="1.0" encoding="UTF-8"?>
<svg xmlns="http://www.w3.org/2000/svg" width="108" height="132" viewBox="0 0 68 80">
  <defs>
    <linearGradient id="zedD" x1="0" y1="0" x2="1" y2="1">
      <stop offset="0" stop-color="#42e5ff"/>
      <stop offset="1" stop-color="#1c8fea"/>
    </linearGradient>
  </defs>
  <path d="M928 0 Q710 0 534 105 Q358 211 252 387 Q147 563 147 774 L147 2938 Q147 3149 252 3325 Q358 3501 534 3606 Q710 3712 928 3712 L3405 3712 L3405 4928 L3930 4928 L3930 0 Z M928 525 L3155 525 Q3258 525 3331 598 Q3405 672 3405 774 L3405 2938 Q3405 3040 3331 3113 Q3258 3187 3155 3187 L928 3187 Q826 3187 752 3113 Q678 3040 678 2938 L678 774 Q678 672 752 598 Q826 525 928 525 Z"
        transform="translate(2 78) scale(.015625 -.015625)"
        fill="none" stroke="#23bce8" stroke-opacity=".28" stroke-width="70"/>
  <path d="M928 0 Q710 0 534 105 Q358 211 252 387 Q147 563 147 774 L147 2938 Q147 3149 252 3325 Q358 3501 534 3606 Q710 3712 928 3712 L3405 3712 L3405 4928 L3930 4928 L3930 0 Z M928 525 L3155 525 Q3258 525 3331 598 Q3405 672 3405 774 L3405 2938 Q3405 3040 3331 3113 Q3258 3187 3155 3187 L928 3187 Q826 3187 752 3113 Q678 3040 678 2938 L678 774 Q678 672 752 598 Q826 525 928 525 Z"
        transform="translate(2 78) scale(.015625 -.015625)" fill="url(#zedD)"/>
</svg>
